<svg width="360" height="24" viewBox="0 0 360 24" fill="none" xmlns="http://www.w3.org/2000/svg">
<mask id="path-1-inside-1_2701_2282" fill="white">
<path d="M0 0H360V24H0V0Z"/>
</mask>
<path d="M0 2H360V-2H0V2Z" fill="#242322" mask="url(#path-1-inside-1_2701_2282)"/>
<path d="M110 0H250L241.282 20.9231C240.506 22.7863 238.685 24 236.667 24H123.333C121.315 24 119.494 22.7863 118.718 20.9231L110 0Z" fill="#242322"/>
<path d="M134.432 12.8887H132.234V11.623H134.432C134.791 11.623 135.082 11.5645 135.305 11.4473C135.531 11.3262 135.697 11.1621 135.803 10.9551C135.908 10.7441 135.961 10.5039 135.961 10.2344C135.961 9.97266 135.908 9.72852 135.803 9.50195C135.697 9.27539 135.531 9.0918 135.305 8.95117C135.082 8.81055 134.791 8.74023 134.432 8.74023H132.762V16H131.15V7.46875H134.432C135.096 7.46875 135.662 7.58789 136.131 7.82617C136.604 8.06055 136.963 8.38672 137.209 8.80469C137.459 9.21875 137.584 9.69141 137.584 10.2227C137.584 10.7734 137.459 11.248 137.209 11.6465C136.963 12.0449 136.604 12.3516 136.131 12.5664C135.662 12.7812 135.096 12.8887 134.432 12.8887ZM140.373 7V16H138.82V7H140.373ZM145.342 14.6523V11.7285C145.342 11.5137 145.305 11.3281 145.23 11.1719C145.156 11.0156 145.043 10.8945 144.891 10.8086C144.738 10.7227 144.545 10.6797 144.311 10.6797C144.104 10.6797 143.922 10.7148 143.766 10.7852C143.613 10.8555 143.496 10.9551 143.414 11.084C143.332 11.209 143.291 11.3535 143.291 11.5176H141.738C141.738 11.2559 141.801 11.0078 141.926 10.7734C142.051 10.5352 142.229 10.3242 142.459 10.1406C142.693 9.95312 142.973 9.80664 143.297 9.70117C143.625 9.5957 143.992 9.54297 144.398 9.54297C144.879 9.54297 145.307 9.625 145.682 9.78906C146.061 9.94922 146.357 10.1914 146.572 10.5156C146.791 10.8398 146.9 11.248 146.9 11.7402V14.5059C146.9 14.8223 146.92 15.0938 146.959 15.3203C147.002 15.543 147.064 15.7363 147.146 15.9004V16H145.57C145.496 15.8398 145.439 15.6367 145.4 15.3906C145.361 15.1406 145.342 14.8945 145.342 14.6523ZM145.559 12.1387L145.57 13.0586H144.592C144.35 13.0586 144.137 13.084 143.953 13.1348C143.77 13.1816 143.619 13.252 143.502 13.3457C143.385 13.4355 143.297 13.5449 143.238 13.6738C143.18 13.7988 143.15 13.9414 143.15 14.1016C143.15 14.2578 143.186 14.3984 143.256 14.5234C143.33 14.6484 143.436 14.748 143.572 14.8223C143.713 14.8926 143.877 14.9277 144.064 14.9277C144.338 14.9277 144.576 14.873 144.779 14.7637C144.982 14.6504 145.141 14.5137 145.254 14.3535C145.367 14.1934 145.428 14.041 145.436 13.8965L145.881 14.5645C145.826 14.7246 145.744 14.8945 145.635 15.0742C145.525 15.2539 145.385 15.4219 145.213 15.5781C145.041 15.7344 144.834 15.8633 144.592 15.9648C144.35 16.0664 144.068 16.1172 143.748 16.1172C143.338 16.1172 142.971 16.0352 142.646 15.8711C142.322 15.707 142.066 15.4824 141.879 15.1973C141.691 14.9121 141.598 14.5879 141.598 14.2246C141.598 13.8887 141.66 13.5918 141.785 13.334C141.91 13.0762 142.096 12.8594 142.342 12.6836C142.588 12.5039 142.893 12.3691 143.256 12.2793C143.623 12.1855 144.043 12.1387 144.516 12.1387H145.559ZM150.059 15.2969L151.758 9.66016H153.416L150.873 16.9609C150.814 17.1172 150.738 17.2871 150.645 17.4707C150.555 17.6543 150.434 17.8281 150.281 17.9922C150.129 18.1602 149.938 18.2969 149.707 18.4023C149.48 18.5078 149.205 18.5605 148.881 18.5605C148.74 18.5605 148.615 18.5508 148.506 18.5312C148.396 18.5117 148.281 18.4863 148.16 18.4551V17.2949C148.199 17.2988 148.244 17.3008 148.295 17.3008C148.35 17.3047 148.396 17.3066 148.436 17.3066C148.662 17.3066 148.85 17.2793 148.998 17.2246C149.146 17.1738 149.266 17.0898 149.355 16.9727C149.449 16.8594 149.527 16.7109 149.59 16.5273L150.059 15.2969ZM149.221 9.66016L150.656 14.3301L150.908 15.9648L149.842 16.1582L147.551 9.66016H149.221ZM156.932 16.1172C156.451 16.1172 156.02 16.0391 155.637 15.8828C155.254 15.7266 154.928 15.5098 154.658 15.2324C154.393 14.9512 154.188 14.625 154.043 14.2539C153.902 13.8789 153.832 13.4766 153.832 13.0469V12.8125C153.832 12.3242 153.902 11.8809 154.043 11.4824C154.184 11.0801 154.383 10.7344 154.641 10.4453C154.898 10.1562 155.207 9.93359 155.566 9.77734C155.926 9.62109 156.322 9.54297 156.756 9.54297C157.205 9.54297 157.602 9.61914 157.945 9.77148C158.289 9.91992 158.576 10.1309 158.807 10.4043C159.037 10.6777 159.211 11.0059 159.328 11.3887C159.445 11.7676 159.504 12.1875 159.504 12.6484V13.2988H154.535V12.2324H157.98V12.1152C157.973 11.8691 157.926 11.6445 157.84 11.4414C157.754 11.2344 157.621 11.0703 157.441 10.9492C157.262 10.8242 157.029 10.7617 156.744 10.7617C156.514 10.7617 156.312 10.8125 156.141 10.9141C155.973 11.0117 155.832 11.1523 155.719 11.3359C155.609 11.5156 155.527 11.7305 155.473 11.9805C155.418 12.2305 155.391 12.5078 155.391 12.8125V13.0469C155.391 13.3125 155.426 13.5586 155.496 13.7852C155.57 14.0117 155.678 14.209 155.818 14.377C155.963 14.541 156.135 14.6699 156.334 14.7637C156.537 14.8535 156.768 14.8984 157.025 14.8984C157.35 14.8984 157.643 14.8359 157.904 14.7109C158.17 14.582 158.4 14.3926 158.596 14.1426L159.375 14.9512C159.242 15.1465 159.062 15.334 158.836 15.5137C158.613 15.6934 158.344 15.8398 158.027 15.9531C157.711 16.0625 157.346 16.1172 156.932 16.1172ZM164.344 14.6523V7H165.902V16H164.496L164.344 14.6523ZM160.271 12.9062V12.7832C160.271 12.2988 160.326 11.8594 160.436 11.4648C160.549 11.0664 160.713 10.7246 160.928 10.4395C161.143 10.1543 161.402 9.93359 161.707 9.77734C162.016 9.62109 162.365 9.54297 162.756 9.54297C163.135 9.54297 163.465 9.61914 163.746 9.77148C164.031 9.92383 164.273 10.1406 164.473 10.4219C164.676 10.7031 164.838 11.0371 164.959 11.4238C165.08 11.8066 165.168 12.2285 165.223 12.6895V13.0234C165.168 13.4727 165.08 13.8848 164.959 14.2598C164.838 14.6348 164.676 14.9629 164.473 15.2441C164.273 15.5215 164.031 15.7363 163.746 15.8887C163.461 16.041 163.127 16.1172 162.744 16.1172C162.357 16.1172 162.01 16.0371 161.701 15.877C161.396 15.7168 161.137 15.4922 160.922 15.2031C160.711 14.9141 160.549 14.5742 160.436 14.1836C160.326 13.793 160.271 13.3672 160.271 12.9062ZM161.824 12.7832V12.9062C161.824 13.1797 161.848 13.4355 161.895 13.6738C161.941 13.9121 162.018 14.123 162.123 14.3066C162.229 14.4863 162.363 14.627 162.527 14.7285C162.695 14.8301 162.898 14.8809 163.137 14.8809C163.441 14.8809 163.691 14.8145 163.887 14.6816C164.086 14.5449 164.24 14.3594 164.35 14.125C164.459 13.8867 164.529 13.6191 164.561 13.3223V12.4023C164.545 12.168 164.504 11.9512 164.438 11.752C164.375 11.5527 164.285 11.3809 164.168 11.2363C164.055 11.0918 163.914 10.9785 163.746 10.8965C163.578 10.8145 163.379 10.7734 163.148 10.7734C162.91 10.7734 162.707 10.8262 162.539 10.9316C162.371 11.0332 162.234 11.1758 162.129 11.3594C162.023 11.543 161.945 11.7559 161.895 11.998C161.848 12.2402 161.824 12.502 161.824 12.7832ZM175.822 14.7344V16H171.533V14.7344H175.822ZM172.02 7.46875V16H170.408V7.46875H172.02ZM180.275 14.6523V11.7285C180.275 11.5137 180.238 11.3281 180.164 11.1719C180.09 11.0156 179.977 10.8945 179.824 10.8086C179.672 10.7227 179.479 10.6797 179.244 10.6797C179.037 10.6797 178.855 10.7148 178.699 10.7852C178.547 10.8555 178.43 10.9551 178.348 11.084C178.266 11.209 178.225 11.3535 178.225 11.5176H176.672C176.672 11.2559 176.734 11.0078 176.859 10.7734C176.984 10.5352 177.162 10.3242 177.393 10.1406C177.627 9.95312 177.906 9.80664 178.23 9.70117C178.559 9.5957 178.926 9.54297 179.332 9.54297C179.812 9.54297 180.24 9.625 180.615 9.78906C180.994 9.94922 181.291 10.1914 181.506 10.5156C181.725 10.8398 181.834 11.248 181.834 11.7402V14.5059C181.834 14.8223 181.854 15.0938 181.893 15.3203C181.936 15.543 181.998 15.7363 182.08 15.9004V16H180.504C180.43 15.8398 180.373 15.6367 180.334 15.3906C180.295 15.1406 180.275 14.8945 180.275 14.6523ZM180.492 12.1387L180.504 13.0586H179.525C179.283 13.0586 179.07 13.084 178.887 13.1348C178.703 13.1816 178.553 13.252 178.436 13.3457C178.318 13.4355 178.23 13.5449 178.172 13.6738C178.113 13.7988 178.084 13.9414 178.084 14.1016C178.084 14.2578 178.119 14.3984 178.189 14.5234C178.264 14.6484 178.369 14.748 178.506 14.8223C178.646 14.8926 178.811 14.9277 178.998 14.9277C179.271 14.9277 179.51 14.873 179.713 14.7637C179.916 14.6504 180.074 14.5137 180.188 14.3535C180.301 14.1934 180.361 14.041 180.369 13.8965L180.814 14.5645C180.76 14.7246 180.678 14.8945 180.568 15.0742C180.459 15.2539 180.318 15.4219 180.146 15.5781C179.975 15.7344 179.768 15.8633 179.525 15.9648C179.283 16.0664 179.002 16.1172 178.682 16.1172C178.271 16.1172 177.904 16.0352 177.58 15.8711C177.256 15.707 177 15.4824 176.812 15.1973C176.625 14.9121 176.531 14.5879 176.531 14.2246C176.531 13.8887 176.594 13.5918 176.719 13.334C176.844 13.0762 177.029 12.8594 177.275 12.6836C177.521 12.5039 177.826 12.3691 178.189 12.2793C178.557 12.1855 178.977 12.1387 179.449 12.1387H180.492ZM186.715 14.2656C186.715 14.1328 186.68 14.0137 186.609 13.9082C186.539 13.8027 186.406 13.707 186.211 13.6211C186.02 13.5312 185.738 13.4473 185.367 13.3691C185.039 13.2988 184.736 13.2109 184.459 13.1055C184.182 13 183.943 12.873 183.744 12.7246C183.545 12.5723 183.389 12.3945 183.275 12.1914C183.166 11.9844 183.111 11.7461 183.111 11.4766C183.111 11.2148 183.168 10.9688 183.281 10.7383C183.395 10.5039 183.559 10.2988 183.773 10.123C183.988 9.94336 184.25 9.80273 184.559 9.70117C184.867 9.5957 185.215 9.54297 185.602 9.54297C186.141 9.54297 186.604 9.63086 186.99 9.80664C187.381 9.98242 187.68 10.2246 187.887 10.5332C188.094 10.8379 188.197 11.1816 188.197 11.5645H186.65C186.65 11.3965 186.611 11.2441 186.533 11.1074C186.459 10.9707 186.344 10.8613 186.188 10.7793C186.031 10.6934 185.834 10.6504 185.596 10.6504C185.381 10.6504 185.199 10.6855 185.051 10.7559C184.906 10.8262 184.797 10.918 184.723 11.0312C184.648 11.1445 184.611 11.2695 184.611 11.4062C184.611 11.5078 184.631 11.5996 184.67 11.6816C184.713 11.7598 184.781 11.832 184.875 11.8984C184.969 11.9648 185.096 12.0254 185.256 12.0801C185.42 12.1348 185.621 12.1875 185.859 12.2383C186.332 12.332 186.744 12.457 187.096 12.6133C187.451 12.7656 187.729 12.9688 187.928 13.2227C188.127 13.4766 188.227 13.8008 188.227 14.1953C188.227 14.4766 188.166 14.7344 188.045 14.9688C187.924 15.1992 187.748 15.4004 187.518 15.5723C187.287 15.7441 187.012 15.8789 186.691 15.9766C186.371 16.0703 186.01 16.1172 185.607 16.1172C185.025 16.1172 184.533 16.0137 184.131 15.8066C183.729 15.5957 183.424 15.3301 183.217 15.0098C183.01 14.6855 182.906 14.3496 182.906 14.002H184.389C184.4 14.248 184.467 14.4453 184.588 14.5938C184.709 14.7422 184.861 14.8496 185.045 14.916C185.232 14.9785 185.43 15.0098 185.637 15.0098C185.871 15.0098 186.068 14.9785 186.229 14.916C186.389 14.8496 186.51 14.7617 186.592 14.6523C186.674 14.5391 186.715 14.4102 186.715 14.2656ZM192.404 9.66016V10.7734H188.771V9.66016H192.404ZM189.744 8.10156H191.297V14.1719C191.297 14.3594 191.322 14.5039 191.373 14.6055C191.424 14.707 191.5 14.7754 191.602 14.8105C191.703 14.8457 191.824 14.8633 191.965 14.8633C192.066 14.8633 192.16 14.8574 192.246 14.8457C192.332 14.834 192.404 14.8223 192.463 14.8105L192.469 15.9707C192.34 16.0137 192.193 16.0488 192.029 16.0762C191.869 16.1035 191.688 16.1172 191.484 16.1172C191.137 16.1172 190.832 16.0586 190.57 15.9414C190.309 15.8203 190.105 15.627 189.961 15.3613C189.816 15.0918 189.744 14.7363 189.744 14.2949V8.10156ZM197.244 7.46875H198.639L200.971 13.8906L203.297 7.46875H204.697L201.527 16H200.408L197.244 7.46875ZM196.541 7.46875H197.906L198.152 13.3691V16H196.541V7.46875ZM204.029 7.46875H205.4V16H203.789V13.3691L204.029 7.46875ZM210.416 14.6523V11.7285C210.416 11.5137 210.379 11.3281 210.305 11.1719C210.23 11.0156 210.117 10.8945 209.965 10.8086C209.812 10.7227 209.619 10.6797 209.385 10.6797C209.178 10.6797 208.996 10.7148 208.84 10.7852C208.688 10.8555 208.57 10.9551 208.488 11.084C208.406 11.209 208.365 11.3535 208.365 11.5176H206.812C206.812 11.2559 206.875 11.0078 207 10.7734C207.125 10.5352 207.303 10.3242 207.533 10.1406C207.768 9.95312 208.047 9.80664 208.371 9.70117C208.699 9.5957 209.066 9.54297 209.473 9.54297C209.953 9.54297 210.381 9.625 210.756 9.78906C211.135 9.94922 211.432 10.1914 211.646 10.5156C211.865 10.8398 211.975 11.248 211.975 11.7402V14.5059C211.975 14.8223 211.994 15.0938 212.033 15.3203C212.076 15.543 212.139 15.7363 212.221 15.9004V16H210.645C210.57 15.8398 210.514 15.6367 210.475 15.3906C210.436 15.1406 210.416 14.8945 210.416 14.6523ZM210.633 12.1387L210.645 13.0586H209.666C209.424 13.0586 209.211 13.084 209.027 13.1348C208.844 13.1816 208.693 13.252 208.576 13.3457C208.459 13.4355 208.371 13.5449 208.312 13.6738C208.254 13.7988 208.225 13.9414 208.225 14.1016C208.225 14.2578 208.26 14.3984 208.33 14.5234C208.404 14.6484 208.51 14.748 208.646 14.8223C208.787 14.8926 208.951 14.9277 209.139 14.9277C209.412 14.9277 209.65 14.873 209.854 14.7637C210.057 14.6504 210.215 14.5137 210.328 14.3535C210.441 14.1934 210.502 14.041 210.51 13.8965L210.955 14.5645C210.9 14.7246 210.818 14.8945 210.709 15.0742C210.6 15.2539 210.459 15.4219 210.287 15.5781C210.115 15.7344 209.908 15.8633 209.666 15.9648C209.424 16.0664 209.143 16.1172 208.822 16.1172C208.412 16.1172 208.045 16.0352 207.721 15.8711C207.396 15.707 207.141 15.4824 206.953 15.1973C206.766 14.9121 206.672 14.5879 206.672 14.2246C206.672 13.8887 206.734 13.5918 206.859 13.334C206.984 13.0762 207.17 12.8594 207.416 12.6836C207.662 12.5039 207.967 12.3691 208.33 12.2793C208.697 12.1855 209.117 12.1387 209.59 12.1387H210.633ZM216.369 9.66016V10.7734H212.736V9.66016H216.369ZM213.709 8.10156H215.262V14.1719C215.262 14.3594 215.287 14.5039 215.338 14.6055C215.389 14.707 215.465 14.7754 215.566 14.8105C215.668 14.8457 215.789 14.8633 215.93 14.8633C216.031 14.8633 216.125 14.8574 216.211 14.8457C216.297 14.834 216.369 14.8223 216.428 14.8105L216.434 15.9707C216.305 16.0137 216.158 16.0488 215.994 16.0762C215.834 16.1035 215.652 16.1172 215.449 16.1172C215.102 16.1172 214.797 16.0586 214.535 15.9414C214.273 15.8203 214.07 15.627 213.926 15.3613C213.781 15.0918 213.709 14.7363 213.709 14.2949V8.10156ZM220.002 14.8984C220.221 14.8984 220.416 14.8555 220.588 14.7695C220.76 14.6836 220.896 14.5625 220.998 14.4062C221.104 14.25 221.16 14.0684 221.168 13.8613H222.627C222.619 14.291 222.498 14.6758 222.264 15.0156C222.029 15.3555 221.717 15.625 221.326 15.8242C220.939 16.0195 220.506 16.1172 220.025 16.1172C219.537 16.1172 219.111 16.0352 218.748 15.8711C218.385 15.707 218.082 15.4785 217.84 15.1855C217.602 14.8926 217.422 14.5527 217.301 14.166C217.184 13.7793 217.125 13.3652 217.125 12.9238V12.7363C217.125 12.2949 217.184 11.8809 217.301 11.4941C217.422 11.1074 217.602 10.7676 217.84 10.4746C218.082 10.1816 218.385 9.95312 218.748 9.78906C219.111 9.625 219.535 9.54297 220.02 9.54297C220.531 9.54297 220.98 9.64258 221.367 9.8418C221.758 10.041 222.062 10.3223 222.281 10.6855C222.504 11.0488 222.619 11.4766 222.627 11.9688H221.168C221.16 11.7422 221.109 11.5391 221.016 11.3594C220.922 11.1797 220.789 11.0352 220.617 10.9258C220.445 10.8164 220.236 10.7617 219.99 10.7617C219.729 10.7617 219.51 10.8164 219.334 10.9258C219.162 11.0352 219.027 11.1855 218.93 11.377C218.836 11.5645 218.77 11.7754 218.73 12.0098C218.695 12.2402 218.678 12.4824 218.678 12.7363V12.9238C218.678 13.1816 218.695 13.4277 218.73 13.6621C218.77 13.8965 218.836 14.1074 218.93 14.2949C219.027 14.4785 219.162 14.625 219.334 14.7344C219.51 14.8438 219.732 14.8984 220.002 14.8984ZM225.176 7V16H223.623V7H225.176ZM224.93 12.6016H224.473C224.473 12.1602 224.531 11.7539 224.648 11.3828C224.766 11.0117 224.932 10.6895 225.146 10.416C225.361 10.1387 225.617 9.92383 225.914 9.77148C226.215 9.61914 226.547 9.54297 226.91 9.54297C227.223 9.54297 227.506 9.58789 227.76 9.67773C228.018 9.76367 228.238 9.90234 228.422 10.0938C228.605 10.2852 228.746 10.5352 228.844 10.8438C228.945 11.1484 228.996 11.5195 228.996 11.957V16H227.438V11.9453C227.438 11.6523 227.395 11.4219 227.309 11.2539C227.223 11.082 227.1 10.959 226.939 10.8848C226.783 10.8105 226.59 10.7734 226.359 10.7734C226.109 10.7734 225.895 10.8223 225.715 10.9199C225.535 11.0137 225.387 11.1445 225.27 11.3125C225.156 11.4805 225.07 11.6738 225.012 11.8926C224.957 12.1113 224.93 12.3477 224.93 12.6016Z" fill="white"/>
</svg>
