<svg width="360" height="24" viewBox="0 0 360 24" fill="none" xmlns="http://www.w3.org/2000/svg">
<mask id="path-1-inside-1_2716_2286" fill="white">
<path d="M0 0H360V24H0V0Z"/>
</mask>
<path d="M0 2H360V-2H0V2Z" fill="#063D8A" mask="url(#path-1-inside-1_2716_2286)"/>
<path d="M119.179 20.7308L110.75 0.5H249.25L240.821 20.7308C240.122 22.4077 238.483 23.5 236.667 23.5H123.333C121.517 23.5 119.878 22.4077 119.179 20.7308Z" fill="#063D8A" stroke="#063D8A"/>
<path d="M151.805 11.5176V11.957C151.805 12.6016 151.719 13.1816 151.547 13.6973C151.375 14.209 151.131 14.6445 150.814 15.0039C150.498 15.3633 150.121 15.6387 149.684 15.8301C149.246 16.0215 148.76 16.1172 148.225 16.1172C147.697 16.1172 147.213 16.0215 146.771 15.8301C146.334 15.6387 145.955 15.3633 145.635 15.0039C145.314 14.6445 145.066 14.209 144.891 13.6973C144.715 13.1816 144.627 12.6016 144.627 11.957V11.5176C144.627 10.8691 144.715 10.2891 144.891 9.77734C145.066 9.26562 145.312 8.83008 145.629 8.4707C145.945 8.10742 146.322 7.83008 146.76 7.63867C147.201 7.44727 147.686 7.35156 148.213 7.35156C148.748 7.35156 149.234 7.44727 149.672 7.63867C150.109 7.83008 150.486 8.10742 150.803 8.4707C151.123 8.83008 151.369 9.26562 151.541 9.77734C151.717 10.2891 151.805 10.8691 151.805 11.5176ZM150.176 11.957V11.5059C150.176 11.041 150.133 10.6328 150.047 10.2812C149.961 9.92578 149.834 9.62695 149.666 9.38477C149.498 9.14258 149.291 8.96094 149.045 8.83984C148.799 8.71484 148.521 8.65234 148.213 8.65234C147.9 8.65234 147.623 8.71484 147.381 8.83984C147.143 8.96094 146.939 9.14258 146.771 9.38477C146.604 9.62695 146.475 9.92578 146.385 10.2812C146.299 10.6328 146.256 11.041 146.256 11.5059V11.957C146.256 12.418 146.299 12.8262 146.385 13.1816C146.475 13.5371 146.604 13.8379 146.771 14.084C146.943 14.3262 147.15 14.5098 147.393 14.6348C147.635 14.7598 147.912 14.8223 148.225 14.8223C148.537 14.8223 148.814 14.7598 149.057 14.6348C149.299 14.5098 149.502 14.3262 149.666 14.084C149.834 13.8379 149.961 13.5371 150.047 13.1816C150.133 12.8262 150.176 12.418 150.176 11.957ZM156.053 9.66016V10.7734H152.42V9.66016H156.053ZM153.393 8.10156H154.945V14.1719C154.945 14.3594 154.971 14.5039 155.021 14.6055C155.072 14.707 155.148 14.7754 155.25 14.8105C155.352 14.8457 155.473 14.8633 155.613 14.8633C155.715 14.8633 155.809 14.8574 155.895 14.8457C155.98 14.834 156.053 14.8223 156.111 14.8105L156.117 15.9707C155.988 16.0137 155.842 16.0488 155.678 16.0762C155.518 16.1035 155.336 16.1172 155.133 16.1172C154.785 16.1172 154.48 16.0586 154.219 15.9414C153.957 15.8203 153.754 15.627 153.609 15.3613C153.465 15.0918 153.393 14.7363 153.393 14.2949V8.10156ZM158.602 7V16H157.049V7H158.602ZM158.355 12.6016H157.898C157.898 12.1602 157.957 11.7539 158.074 11.3828C158.191 11.0117 158.357 10.6895 158.572 10.416C158.787 10.1387 159.043 9.92383 159.34 9.77148C159.641 9.61914 159.973 9.54297 160.336 9.54297C160.648 9.54297 160.932 9.58789 161.186 9.67773C161.443 9.76367 161.664 9.90234 161.848 10.0938C162.031 10.2852 162.172 10.5352 162.27 10.8438C162.371 11.1484 162.422 11.5195 162.422 11.957V16H160.863V11.9453C160.863 11.6523 160.82 11.4219 160.734 11.2539C160.648 11.082 160.525 10.959 160.365 10.8848C160.209 10.8105 160.016 10.7734 159.785 10.7734C159.535 10.7734 159.32 10.8223 159.141 10.9199C158.961 11.0137 158.812 11.1445 158.695 11.3125C158.582 11.4805 158.496 11.6738 158.438 11.8926C158.383 12.1113 158.355 12.3477 158.355 12.6016ZM166.635 16.1172C166.154 16.1172 165.723 16.0391 165.34 15.8828C164.957 15.7266 164.631 15.5098 164.361 15.2324C164.096 14.9512 163.891 14.625 163.746 14.2539C163.605 13.8789 163.535 13.4766 163.535 13.0469V12.8125C163.535 12.3242 163.605 11.8809 163.746 11.4824C163.887 11.0801 164.086 10.7344 164.344 10.4453C164.602 10.1562 164.91 9.93359 165.27 9.77734C165.629 9.62109 166.025 9.54297 166.459 9.54297C166.908 9.54297 167.305 9.61914 167.648 9.77148C167.992 9.91992 168.279 10.1309 168.51 10.4043C168.74 10.6777 168.914 11.0059 169.031 11.3887C169.148 11.7676 169.207 12.1875 169.207 12.6484V13.2988H164.238V12.2324H167.684V12.1152C167.676 11.8691 167.629 11.6445 167.543 11.4414C167.457 11.2344 167.324 11.0703 167.145 10.9492C166.965 10.8242 166.732 10.7617 166.447 10.7617C166.217 10.7617 166.016 10.8125 165.844 10.9141C165.676 11.0117 165.535 11.1523 165.422 11.3359C165.312 11.5156 165.23 11.7305 165.176 11.9805C165.121 12.2305 165.094 12.5078 165.094 12.8125V13.0469C165.094 13.3125 165.129 13.5586 165.199 13.7852C165.273 14.0117 165.381 14.209 165.521 14.377C165.666 14.541 165.838 14.6699 166.037 14.7637C166.24 14.8535 166.471 14.8984 166.729 14.8984C167.053 14.8984 167.346 14.8359 167.607 14.7109C167.873 14.582 168.104 14.3926 168.299 14.1426L169.078 14.9512C168.945 15.1465 168.766 15.334 168.539 15.5137C168.316 15.6934 168.047 15.8398 167.73 15.9531C167.414 16.0625 167.049 16.1172 166.635 16.1172ZM171.791 10.9551V16H170.244V9.66016H171.709L171.791 10.9551ZM173.719 9.61914L173.695 11.0605C173.609 11.0449 173.512 11.0332 173.402 11.0254C173.297 11.0176 173.197 11.0137 173.104 11.0137C172.865 11.0137 172.656 11.0469 172.477 11.1133C172.297 11.1758 172.146 11.2676 172.025 11.3887C171.908 11.5098 171.818 11.6582 171.756 11.834C171.693 12.0059 171.658 12.2012 171.65 12.4199L171.316 12.3789C171.316 11.9766 171.357 11.6035 171.439 11.2598C171.521 10.916 171.641 10.6152 171.797 10.3574C171.953 10.0996 172.148 9.90039 172.383 9.75977C172.621 9.61523 172.895 9.54297 173.203 9.54297C173.289 9.54297 173.381 9.55078 173.479 9.56641C173.58 9.57812 173.66 9.5957 173.719 9.61914ZM179.104 10.8789V18.4375H177.551V9.66016H178.986L179.104 10.8789ZM183.176 12.7656V12.8887C183.176 13.3496 183.121 13.7773 183.012 14.1719C182.906 14.5625 182.75 14.9043 182.543 15.1973C182.336 15.4863 182.078 15.7129 181.77 15.877C181.465 16.0371 181.113 16.1172 180.715 16.1172C180.324 16.1172 179.984 16.043 179.695 15.8945C179.406 15.7422 179.162 15.5273 178.963 15.25C178.764 14.9727 178.604 14.6504 178.482 14.2832C178.365 13.9121 178.277 13.5078 178.219 13.0703V12.6777C178.277 12.2129 178.365 11.791 178.482 11.4121C178.604 11.0293 178.764 10.6992 178.963 10.4219C179.162 10.1406 179.404 9.92383 179.689 9.77148C179.979 9.61914 180.316 9.54297 180.703 9.54297C181.105 9.54297 181.459 9.61914 181.764 9.77148C182.072 9.92383 182.332 10.1426 182.543 10.4277C182.754 10.7129 182.912 11.0527 183.018 11.4473C183.123 11.8418 183.176 12.2812 183.176 12.7656ZM181.623 12.8887V12.7656C181.623 12.4844 181.598 12.2246 181.547 11.9863C181.496 11.7441 181.418 11.5332 181.312 11.3535C181.207 11.1699 181.07 11.0273 180.902 10.9258C180.734 10.8242 180.531 10.7734 180.293 10.7734C180.055 10.7734 179.85 10.8125 179.678 10.8906C179.506 10.9688 179.365 11.0801 179.256 11.2246C179.146 11.3691 179.061 11.541 178.998 11.7402C178.939 11.9355 178.9 12.1523 178.881 12.3906V13.3633C178.916 13.6523 178.984 13.9121 179.086 14.1426C179.188 14.373 179.336 14.5566 179.531 14.6934C179.73 14.8301 179.988 14.8984 180.305 14.8984C180.543 14.8984 180.746 14.8457 180.914 14.7402C181.082 14.6348 181.219 14.4902 181.324 14.3066C181.43 14.1191 181.506 13.9043 181.553 13.6621C181.6 13.4199 181.623 13.1621 181.623 12.8887ZM185.947 7V16H184.395V7H185.947ZM190.916 14.6523V11.7285C190.916 11.5137 190.879 11.3281 190.805 11.1719C190.73 11.0156 190.617 10.8945 190.465 10.8086C190.312 10.7227 190.119 10.6797 189.885 10.6797C189.678 10.6797 189.496 10.7148 189.34 10.7852C189.188 10.8555 189.07 10.9551 188.988 11.084C188.906 11.209 188.865 11.3535 188.865 11.5176H187.312C187.312 11.2559 187.375 11.0078 187.5 10.7734C187.625 10.5352 187.803 10.3242 188.033 10.1406C188.268 9.95312 188.547 9.80664 188.871 9.70117C189.199 9.5957 189.566 9.54297 189.973 9.54297C190.453 9.54297 190.881 9.625 191.256 9.78906C191.635 9.94922 191.932 10.1914 192.146 10.5156C192.365 10.8398 192.475 11.248 192.475 11.7402V14.5059C192.475 14.8223 192.494 15.0938 192.533 15.3203C192.576 15.543 192.639 15.7363 192.721 15.9004V16H191.145C191.07 15.8398 191.014 15.6367 190.975 15.3906C190.936 15.1406 190.916 14.8945 190.916 14.6523ZM191.133 12.1387L191.145 13.0586H190.166C189.924 13.0586 189.711 13.084 189.527 13.1348C189.344 13.1816 189.193 13.252 189.076 13.3457C188.959 13.4355 188.871 13.5449 188.812 13.6738C188.754 13.7988 188.725 13.9414 188.725 14.1016C188.725 14.2578 188.76 14.3984 188.83 14.5234C188.904 14.6484 189.01 14.748 189.146 14.8223C189.287 14.8926 189.451 14.9277 189.639 14.9277C189.912 14.9277 190.15 14.873 190.354 14.7637C190.557 14.6504 190.715 14.5137 190.828 14.3535C190.941 14.1934 191.002 14.041 191.01 13.8965L191.455 14.5645C191.4 14.7246 191.318 14.8945 191.209 15.0742C191.1 15.2539 190.959 15.4219 190.787 15.5781C190.615 15.7344 190.408 15.8633 190.166 15.9648C189.924 16.0664 189.643 16.1172 189.322 16.1172C188.912 16.1172 188.545 16.0352 188.221 15.8711C187.896 15.707 187.641 15.4824 187.453 15.1973C187.266 14.9121 187.172 14.5879 187.172 14.2246C187.172 13.8887 187.234 13.5918 187.359 13.334C187.484 13.0762 187.67 12.8594 187.916 12.6836C188.162 12.5039 188.467 12.3691 188.83 12.2793C189.197 12.1855 189.617 12.1387 190.09 12.1387H191.133ZM195.633 15.2969L197.332 9.66016H198.99L196.447 16.9609C196.389 17.1172 196.312 17.2871 196.219 17.4707C196.129 17.6543 196.008 17.8281 195.855 17.9922C195.703 18.1602 195.512 18.2969 195.281 18.4023C195.055 18.5078 194.779 18.5605 194.455 18.5605C194.314 18.5605 194.189 18.5508 194.08 18.5312C193.971 18.5117 193.855 18.4863 193.734 18.4551V17.2949C193.773 17.2988 193.818 17.3008 193.869 17.3008C193.924 17.3047 193.971 17.3066 194.01 17.3066C194.236 17.3066 194.424 17.2793 194.572 17.2246C194.721 17.1738 194.84 17.0898 194.93 16.9727C195.023 16.8594 195.102 16.7109 195.164 16.5273L195.633 15.2969ZM194.795 9.66016L196.23 14.3301L196.482 15.9648L195.416 16.1582L193.125 9.66016H194.795ZM202.506 16.1172C202.025 16.1172 201.594 16.0391 201.211 15.8828C200.828 15.7266 200.502 15.5098 200.232 15.2324C199.967 14.9512 199.762 14.625 199.617 14.2539C199.477 13.8789 199.406 13.4766 199.406 13.0469V12.8125C199.406 12.3242 199.477 11.8809 199.617 11.4824C199.758 11.0801 199.957 10.7344 200.215 10.4453C200.473 10.1562 200.781 9.93359 201.141 9.77734C201.5 9.62109 201.896 9.54297 202.33 9.54297C202.779 9.54297 203.176 9.61914 203.52 9.77148C203.863 9.91992 204.15 10.1309 204.381 10.4043C204.611 10.6777 204.785 11.0059 204.902 11.3887C205.02 11.7676 205.078 12.1875 205.078 12.6484V13.2988H200.109V12.2324H203.555V12.1152C203.547 11.8691 203.5 11.6445 203.414 11.4414C203.328 11.2344 203.195 11.0703 203.016 10.9492C202.836 10.8242 202.604 10.7617 202.318 10.7617C202.088 10.7617 201.887 10.8125 201.715 10.9141C201.547 11.0117 201.406 11.1523 201.293 11.3359C201.184 11.5156 201.102 11.7305 201.047 11.9805C200.992 12.2305 200.965 12.5078 200.965 12.8125V13.0469C200.965 13.3125 201 13.5586 201.07 13.7852C201.145 14.0117 201.252 14.209 201.393 14.377C201.537 14.541 201.709 14.6699 201.908 14.7637C202.111 14.8535 202.342 14.8984 202.6 14.8984C202.924 14.8984 203.217 14.8359 203.479 14.7109C203.744 14.582 203.975 14.3926 204.17 14.1426L204.949 14.9512C204.816 15.1465 204.637 15.334 204.41 15.5137C204.188 15.6934 203.918 15.8398 203.602 15.9531C203.285 16.0625 202.92 16.1172 202.506 16.1172ZM207.662 10.9551V16H206.115V9.66016H207.58L207.662 10.9551ZM209.59 9.61914L209.566 11.0605C209.48 11.0449 209.383 11.0332 209.273 11.0254C209.168 11.0176 209.068 11.0137 208.975 11.0137C208.736 11.0137 208.527 11.0469 208.348 11.1133C208.168 11.1758 208.018 11.2676 207.896 11.3887C207.779 11.5098 207.689 11.6582 207.627 11.834C207.564 12.0059 207.529 12.2012 207.521 12.4199L207.188 12.3789C207.188 11.9766 207.229 11.6035 207.311 11.2598C207.393 10.916 207.512 10.6152 207.668 10.3574C207.824 10.0996 208.02 9.90039 208.254 9.75977C208.492 9.61523 208.766 9.54297 209.074 9.54297C209.16 9.54297 209.252 9.55078 209.35 9.56641C209.451 9.57812 209.531 9.5957 209.59 9.61914ZM213.926 14.2656C213.926 14.1328 213.891 14.0137 213.82 13.9082C213.75 13.8027 213.617 13.707 213.422 13.6211C213.23 13.5312 212.949 13.4473 212.578 13.3691C212.25 13.2988 211.947 13.2109 211.67 13.1055C211.393 13 211.154 12.873 210.955 12.7246C210.756 12.5723 210.6 12.3945 210.486 12.1914C210.377 11.9844 210.322 11.7461 210.322 11.4766C210.322 11.2148 210.379 10.9688 210.492 10.7383C210.605 10.5039 210.77 10.2988 210.984 10.123C211.199 9.94336 211.461 9.80273 211.77 9.70117C212.078 9.5957 212.426 9.54297 212.812 9.54297C213.352 9.54297 213.814 9.63086 214.201 9.80664C214.592 9.98242 214.891 10.2246 215.098 10.5332C215.305 10.8379 215.408 11.1816 215.408 11.5645H213.861C213.861 11.3965 213.822 11.2441 213.744 11.1074C213.67 10.9707 213.555 10.8613 213.398 10.7793C213.242 10.6934 213.045 10.6504 212.807 10.6504C212.592 10.6504 212.41 10.6855 212.262 10.7559C212.117 10.8262 212.008 10.918 211.934 11.0312C211.859 11.1445 211.822 11.2695 211.822 11.4062C211.822 11.5078 211.842 11.5996 211.881 11.6816C211.924 11.7598 211.992 11.832 212.086 11.8984C212.18 11.9648 212.307 12.0254 212.467 12.0801C212.631 12.1348 212.832 12.1875 213.07 12.2383C213.543 12.332 213.955 12.457 214.307 12.6133C214.662 12.7656 214.939 12.9688 215.139 13.2227C215.338 13.4766 215.438 13.8008 215.438 14.1953C215.438 14.4766 215.377 14.7344 215.256 14.9688C215.135 15.1992 214.959 15.4004 214.729 15.5723C214.498 15.7441 214.223 15.8789 213.902 15.9766C213.582 16.0703 213.221 16.1172 212.818 16.1172C212.236 16.1172 211.744 16.0137 211.342 15.8066C210.939 15.5957 210.635 15.3301 210.428 15.0098C210.221 14.6855 210.117 14.3496 210.117 14.002H211.6C211.611 14.248 211.678 14.4453 211.799 14.5938C211.92 14.7422 212.072 14.8496 212.256 14.916C212.443 14.9785 212.641 15.0098 212.848 15.0098C213.082 15.0098 213.279 14.9785 213.439 14.916C213.6 14.8496 213.721 14.7617 213.803 14.6523C213.885 14.5391 213.926 14.4102 213.926 14.2656Z" fill="white"/>
</svg>
